<svg xmlns="http://www.w3.org/2000/svg" width="1212" height="680"><rect width="1212" height="680" x="0" y="0" fill="#102060"/><g fill="#dd0070"><path d="M-20,-20 h-180 v-90 a90 90 0 0 1 90 -90 h90 v180 Z" transform="translate(240 440)"/><path d="M20,-20 h180 v-180 h-180 v180 Z" transform="translate(240 440)"/><path d="M-20,20 h-180 v180 h180 v-180 Z" transform="translate(240 440)"/><path d="M20,20 h180 v90 a90 90 0 0 1 -90 90 h-90 v-180 Z" transform="translate(240 440)"/><path fill="#102060" d="M37,37 h146 v73 a73 73 0 0 1 -73 73 h-73 v-146 Z" transform="translate(240 440)"/></g><g fill="#fff"><path d="M 0,0 0,-238 C 67.914824,-271.55992 150.83647,-278.36855 192,-278 L 192,-325 C 193.36317,-400.51853 314.12652,-400 350,-400 L 384,-400 384,-348 C 343.45314,-353.02967 303.83672,-351.56645 302,-327 L 302,-278 527,-278 A125 125 0 0 1 652 -153 L 652,-125 A125 125 0 0 1 527 0 L 487,0 A125 125 0 0 1 362 -125 L 362,-153 A125 125 0 0 1 487 -278 L 487,-224 302,-224 302,0 192,0 192,-224 C 156.18455,-221.87224 129.24583,-220.68214 110,-200 L 110,0 Z M 384,-400 L 415,-400 A5 5 0 0 1 420 -395 L 420,-350 A5 5 0 0 1 415 -345 L 384,-348 Z" transform="translate(520 440)"/><path fill="#102060" d="M 507,-251 h10 a40 80 0 0 1 40 80 v64 a40 80 0 0 1 -40 80 h-20 a40 80 0 0 1 -40 -80 v-64 a40 80 0 0 1 40 -80 h10 Z" transform="translate(520 440)"/></g></svg>